%TF.GenerationSoftware,KiCad,Pcbnew,(7.0.0-0)*%
%TF.CreationDate,2023-04-08T13:25:50-06:00*%
%TF.ProjectId,Custom-Microcontroller-Project,43757374-6f6d-42d4-9d69-63726f636f6e,1*%
%TF.SameCoordinates,Original*%
%TF.FileFunction,Soldermask,Top*%
%TF.FilePolarity,Negative*%
%FSLAX46Y46*%
G04 Gerber Fmt 4.6, Leading zero omitted, Abs format (unit mm)*
G04 Created by KiCad (PCBNEW (7.0.0-0)) date 2023-04-08 13:25:50*
%MOMM*%
%LPD*%
G01*
G04 APERTURE LIST*
G04 Aperture macros list*
%AMRoundRect*
0 Rectangle with rounded corners*
0 $1 Rounding radius*
0 $2 $3 $4 $5 $6 $7 $8 $9 X,Y pos of 4 corners*
0 Add a 4 corners polygon primitive as box body*
4,1,4,$2,$3,$4,$5,$6,$7,$8,$9,$2,$3,0*
0 Add four circle primitives for the rounded corners*
1,1,$1+$1,$2,$3*
1,1,$1+$1,$4,$5*
1,1,$1+$1,$6,$7*
1,1,$1+$1,$8,$9*
0 Add four rect primitives between the rounded corners*
20,1,$1+$1,$2,$3,$4,$5,0*
20,1,$1+$1,$4,$5,$6,$7,0*
20,1,$1+$1,$6,$7,$8,$9,0*
20,1,$1+$1,$8,$9,$2,$3,0*%
%AMFreePoly0*
4,1,25,0.354512,0.855866,0.387473,0.833842,0.833842,0.387473,0.855866,0.354512,0.863600,0.315631,0.863600,-0.315631,0.855866,-0.354512,0.833842,-0.387473,0.387473,-0.833842,0.354512,-0.855866,0.315631,-0.863600,-0.315631,-0.863600,-0.354512,-0.855866,-0.387473,-0.833842,-0.833842,-0.387473,-0.855866,-0.354512,-0.863600,-0.315631,-0.863600,0.315631,-0.855866,0.354512,-0.833842,0.387473,
-0.387473,0.833842,-0.354512,0.855866,-0.315631,0.863600,0.315631,0.863600,0.354512,0.855866,0.354512,0.855866,$1*%
%AMFreePoly1*
4,1,25,0.374394,0.903866,0.407355,0.881842,0.881842,0.407355,0.903866,0.374394,0.911600,0.335513,0.911600,-0.335513,0.903866,-0.374394,0.881842,-0.407355,0.407355,-0.881842,0.374394,-0.903866,0.335513,-0.911600,-0.335513,-0.911600,-0.374394,-0.903866,-0.407355,-0.881842,-0.881842,-0.407355,-0.903866,-0.374394,-0.911600,-0.335513,-0.911600,0.335513,-0.903866,0.374394,-0.881842,0.407355,
-0.407355,0.881842,-0.374394,0.903866,-0.335513,0.911600,0.335513,0.911600,0.374394,0.903866,0.374394,0.903866,$1*%
G04 Aperture macros list end*
%ADD10RoundRect,0.101600X0.406400X-0.381000X0.406400X0.381000X-0.406400X0.381000X-0.406400X-0.381000X0*%
%ADD11R,0.400000X1.350000*%
%ADD12R,1.600000X1.400000*%
%ADD13R,1.900000X1.900000*%
%ADD14O,0.900000X1.800000*%
%ADD15FreePoly0,180.000000*%
%ADD16RoundRect,0.101600X-0.406400X0.381000X-0.406400X-0.381000X0.406400X-0.381000X0.406400X0.381000X0*%
%ADD17FreePoly0,0.000000*%
%ADD18R,1.580000X1.580000*%
%ADD19C,1.580000*%
%ADD20RoundRect,0.101600X-0.381000X-0.406400X0.381000X-0.406400X0.381000X0.406400X-0.381000X0.406400X0*%
%ADD21R,1.700000X1.000000*%
%ADD22R,0.889000X1.625600*%
%ADD23R,3.200400X1.625600*%
%ADD24R,1.397000X0.558800*%
%ADD25R,2.200000X1.050000*%
%ADD26R,1.050000X1.000000*%
%ADD27R,1.346200X1.498600*%
%ADD28RoundRect,0.008100X-0.396900X-0.126900X0.396900X-0.126900X0.396900X0.126900X-0.396900X0.126900X0*%
%ADD29RoundRect,0.027000X-0.108000X-0.378000X0.108000X-0.378000X0.108000X0.378000X-0.108000X0.378000X0*%
%ADD30R,3.700000X3.700000*%
%ADD31R,0.812800X0.254000*%
%ADD32R,0.254000X0.812800*%
%ADD33R,4.191000X4.191000*%
%ADD34R,1.295400X5.308600*%
%ADD35RoundRect,0.101600X0.810000X-0.810000X0.810000X0.810000X-0.810000X0.810000X-0.810000X-0.810000X0*%
%ADD36FreePoly1,90.000000*%
%ADD37R,0.812800X0.800100*%
%ADD38RoundRect,0.101600X0.381000X0.406400X-0.381000X0.406400X-0.381000X-0.406400X0.381000X-0.406400X0*%
%ADD39FreePoly0,90.000000*%
G04 APERTURE END LIST*
D10*
%TO.C,R7*%
X202225699Y-117525800D03*
X202225699Y-115976400D03*
%TD*%
D11*
%TO.C,J1*%
X94203999Y-119494299D03*
X94853999Y-119494299D03*
X95503999Y-119494299D03*
X96153999Y-119494299D03*
X96803999Y-119494299D03*
D12*
X92303999Y-119719299D03*
X98703999Y-119719299D03*
D13*
X96703999Y-122169299D03*
X94303999Y-122169299D03*
D14*
X92203999Y-122169299D03*
X98803999Y-122169299D03*
%TD*%
D15*
%TO.C,J10*%
X163830000Y-108889800D03*
X163830000Y-106349800D03*
%TD*%
D16*
%TO.C,R5*%
X180594000Y-98209100D03*
X180594000Y-99758500D03*
%TD*%
D10*
%TO.C,C11*%
X126238000Y-88912700D03*
X126238000Y-87363300D03*
%TD*%
%TO.C,C21*%
X202225699Y-120307100D03*
X202225699Y-118757700D03*
%TD*%
D17*
%TO.C,J7*%
X106426000Y-100838000D03*
X106426000Y-103378000D03*
%TD*%
D18*
%TO.C,S1*%
X88897999Y-109786799D03*
D19*
X88898000Y-102166800D03*
X91438000Y-109786800D03*
X91438000Y-102166800D03*
X93978000Y-109786800D03*
X93978000Y-102166800D03*
X96518000Y-109786800D03*
X96518000Y-102166800D03*
X99058000Y-109786800D03*
X99058000Y-102166800D03*
X101598000Y-109786800D03*
X101598000Y-102166800D03*
%TD*%
D10*
%TO.C,L3*%
X169926000Y-88315800D03*
X169926000Y-86766400D03*
%TD*%
%TO.C,C14*%
X113538000Y-84010500D03*
X113538000Y-82461100D03*
%TD*%
D20*
%TO.C,C1*%
X113799000Y-109035850D03*
X115348400Y-109035850D03*
%TD*%
D21*
%TO.C,Y3*%
X169925999Y-84765999D03*
X169925999Y-82365999D03*
%TD*%
D18*
%TO.C,S2*%
X175259999Y-109651799D03*
D19*
X175260000Y-102031800D03*
X177800000Y-109651800D03*
X177800000Y-102031800D03*
X180340000Y-109651800D03*
X180340000Y-102031800D03*
X182880000Y-109651800D03*
X182880000Y-102031800D03*
X185420000Y-109651800D03*
X185420000Y-102031800D03*
X187960000Y-109651800D03*
X187960000Y-102031800D03*
%TD*%
D22*
%TO.C,U1*%
X110972599Y-107086399D03*
X113283999Y-107086399D03*
X115595399Y-107086399D03*
D23*
X113283999Y-100507799D03*
%TD*%
D15*
%TO.C,J9*%
X163830000Y-113969800D03*
X163830000Y-111429800D03*
%TD*%
D16*
%TO.C,R15*%
X147828000Y-91414600D03*
X147828000Y-92964000D03*
%TD*%
D10*
%TO.C,C24*%
X169926000Y-91097100D03*
X169926000Y-89547700D03*
%TD*%
%TO.C,C8*%
X114808000Y-77228700D03*
X114808000Y-75679300D03*
%TD*%
%TO.C,R2*%
X119587201Y-117483800D03*
X119587201Y-115934400D03*
%TD*%
%TO.C,C7*%
X113284000Y-77228700D03*
X113284000Y-75679300D03*
%TD*%
%TO.C,R11*%
X147574000Y-114566700D03*
X147574000Y-113017300D03*
%TD*%
D20*
%TO.C,C2*%
X113799000Y-110305850D03*
X115348400Y-110305850D03*
%TD*%
D24*
%TO.C,SW2*%
X194351698Y-117525799D03*
X200364300Y-117525799D03*
%TD*%
D16*
%TO.C,R13*%
X146304000Y-91351100D03*
X146304000Y-92900500D03*
%TD*%
D20*
%TO.C,C5*%
X89649300Y-88569800D03*
X91198700Y-88569800D03*
%TD*%
D10*
%TO.C,C6*%
X119587201Y-120277800D03*
X119587201Y-118728400D03*
%TD*%
D20*
%TO.C,C23*%
X166357300Y-82296000D03*
X167906700Y-82296000D03*
%TD*%
D10*
%TO.C,C10*%
X128016000Y-88912700D03*
X128016000Y-87363300D03*
%TD*%
D20*
%TO.C,C22*%
X166357300Y-84836000D03*
X167906700Y-84836000D03*
%TD*%
D25*
%TO.C,ANT1*%
X138937999Y-81047799D03*
D26*
X137412999Y-82522799D03*
D25*
X138937999Y-83997799D03*
%TD*%
D27*
%TO.C,Y2*%
X117855999Y-75234799D03*
X122935999Y-75234799D03*
X122935999Y-70916799D03*
X117855999Y-70916799D03*
%TD*%
D28*
%TO.C,U2*%
X118110000Y-81965800D03*
X118110000Y-82465800D03*
X118110000Y-82965800D03*
X118110000Y-83465800D03*
X118110000Y-83965800D03*
X118110000Y-84465800D03*
X118110000Y-84965800D03*
X118110000Y-85465800D03*
D29*
X118810000Y-86165800D03*
X119310000Y-86165800D03*
X119810000Y-86165800D03*
X120310000Y-86165800D03*
X120810000Y-86165800D03*
X121310000Y-86165800D03*
X121810000Y-86165800D03*
X122310000Y-86165800D03*
D28*
X123010000Y-85465800D03*
X123010000Y-84965800D03*
X123010000Y-84465800D03*
X123010000Y-83965800D03*
X123010000Y-83465800D03*
X123010000Y-82965800D03*
X123010000Y-82465800D03*
X123010000Y-81965800D03*
D29*
X122310000Y-81265800D03*
X121810000Y-81265800D03*
X121310000Y-81265800D03*
X120810000Y-81265800D03*
X120310000Y-81265800D03*
X119810000Y-81265800D03*
X119310000Y-81265800D03*
X118810000Y-81265800D03*
D30*
X120559999Y-83715799D03*
%TD*%
D31*
%TO.C,U5*%
X178130199Y-85775799D03*
X178130199Y-86283799D03*
X178130199Y-86791799D03*
X178130199Y-87299799D03*
X178130199Y-87807799D03*
X178130199Y-88315799D03*
X178130199Y-88823799D03*
X178130199Y-89331799D03*
X178130199Y-89839799D03*
X178130199Y-90347799D03*
X178130199Y-90855799D03*
X178130199Y-91363799D03*
D32*
X178815999Y-92049599D03*
X179323999Y-92049599D03*
X179831999Y-92049599D03*
X180339999Y-92049599D03*
X180847999Y-92049599D03*
X181355999Y-92049599D03*
X181863999Y-92049599D03*
X182371999Y-92049599D03*
X182879999Y-92049599D03*
X183387999Y-92049599D03*
X183895999Y-92049599D03*
X184403999Y-92049599D03*
D31*
X185089799Y-91363799D03*
X185089799Y-90855799D03*
X185089799Y-90347799D03*
X185089799Y-89839799D03*
X185089799Y-89331799D03*
X185089799Y-88823799D03*
X185089799Y-88315799D03*
X185089799Y-87807799D03*
X185089799Y-87299799D03*
X185089799Y-86791799D03*
X185089799Y-86283799D03*
X185089799Y-85775799D03*
D32*
X184403999Y-85089999D03*
X183895999Y-85089999D03*
X183387999Y-85089999D03*
X182879999Y-85089999D03*
X182371999Y-85089999D03*
X181863999Y-85089999D03*
X181355999Y-85089999D03*
X180847999Y-85089999D03*
X180339999Y-85089999D03*
X179831999Y-85089999D03*
X179323999Y-85089999D03*
X178815999Y-85089999D03*
D33*
X181609999Y-88569799D03*
%TD*%
D20*
%TO.C,C9*%
X131705000Y-81252800D03*
X133254400Y-81252800D03*
%TD*%
D34*
%TO.C,Y1*%
X94995999Y-79997299D03*
X94995999Y-88506299D03*
%TD*%
D20*
%TO.C,C17*%
X196583300Y-107925000D03*
X198132700Y-107925000D03*
%TD*%
D35*
%TO.C,J5*%
X150368000Y-68072000D03*
D36*
X152908000Y-68072000D03*
X155448000Y-68072000D03*
X157988000Y-68072000D03*
X160528000Y-68072000D03*
X163068000Y-68072000D03*
X165608000Y-68072000D03*
X168148000Y-68072000D03*
X170688000Y-68072000D03*
X173228000Y-68072000D03*
X175768000Y-68072000D03*
X178308000Y-68072000D03*
X180848000Y-68072000D03*
X183388000Y-68072000D03*
X185928000Y-68072000D03*
X188468000Y-68072000D03*
X191008000Y-68072000D03*
X193548000Y-68072000D03*
X196088000Y-68072000D03*
X198628000Y-68072000D03*
X150368000Y-65532000D03*
X152908000Y-65532000D03*
X155448000Y-65532000D03*
X157988000Y-65532000D03*
X160528000Y-65532000D03*
X163068000Y-65532000D03*
X165608000Y-65532000D03*
X168148000Y-65532000D03*
X170688000Y-65532000D03*
X173228000Y-65532000D03*
X175768000Y-65532000D03*
X178308000Y-65532000D03*
X180848000Y-65532000D03*
X183388000Y-65532000D03*
X185928000Y-65532000D03*
X188468000Y-65532000D03*
X191008000Y-65532000D03*
X193548000Y-65532000D03*
X196088000Y-65532000D03*
X198628000Y-65532000D03*
%TD*%
D10*
%TO.C,C16*%
X109728000Y-84010500D03*
X109728000Y-82461100D03*
%TD*%
D37*
%TO.C,D1*%
X118637699Y-103200199D03*
X118637699Y-104711499D03*
%TD*%
D10*
%TO.C,C13*%
X119634000Y-91389200D03*
X119634000Y-89839800D03*
%TD*%
D38*
%TO.C,C25*%
X181114700Y-76708000D03*
X179565300Y-76708000D03*
%TD*%
D20*
%TO.C,R9*%
X193027300Y-90347800D03*
X194576700Y-90347800D03*
%TD*%
D10*
%TO.C,R12*%
X149098000Y-114566700D03*
X149098000Y-113017300D03*
%TD*%
%TO.C,L2*%
X112268000Y-84010500D03*
X112268000Y-82461100D03*
%TD*%
D20*
%TO.C,C19*%
X196583300Y-110921800D03*
X198132700Y-110921800D03*
%TD*%
D17*
%TO.C,J12*%
X106426000Y-110998000D03*
X106426000Y-113538000D03*
%TD*%
%TO.C,J11*%
X106426000Y-105918000D03*
X106426000Y-108458000D03*
%TD*%
D35*
%TO.C,J2*%
X91694000Y-68072000D03*
D36*
X94234000Y-68072000D03*
X96774000Y-68072000D03*
X99314000Y-68072000D03*
X101854000Y-68072000D03*
X104394000Y-68072000D03*
X106934000Y-68072000D03*
X109474000Y-68072000D03*
X112014000Y-68072000D03*
X114554000Y-68072000D03*
X117094000Y-68072000D03*
X119634000Y-68072000D03*
X122174000Y-68072000D03*
X124714000Y-68072000D03*
X127254000Y-68072000D03*
X129794000Y-68072000D03*
X132334000Y-68072000D03*
X134874000Y-68072000D03*
X137414000Y-68072000D03*
X139954000Y-68072000D03*
X91694000Y-65532000D03*
X94234000Y-65532000D03*
X96774000Y-65532000D03*
X99314000Y-65532000D03*
X101854000Y-65532000D03*
X104394000Y-65532000D03*
X106934000Y-65532000D03*
X109474000Y-65532000D03*
X112014000Y-65532000D03*
X114554000Y-65532000D03*
X117094000Y-65532000D03*
X119634000Y-65532000D03*
X122174000Y-65532000D03*
X124714000Y-65532000D03*
X127254000Y-65532000D03*
X129794000Y-65532000D03*
X132334000Y-65532000D03*
X134874000Y-65532000D03*
X137414000Y-65532000D03*
X139954000Y-65532000D03*
%TD*%
D20*
%TO.C,C20*%
X196583300Y-112445800D03*
X198132700Y-112445800D03*
%TD*%
D24*
%TO.C,SW1*%
X111801698Y-117525799D03*
X117814300Y-117525799D03*
%TD*%
D20*
%TO.C,L1*%
X134486300Y-81252800D03*
X136035700Y-81252800D03*
%TD*%
%TO.C,C3*%
X113799000Y-111575850D03*
X115348400Y-111575850D03*
%TD*%
%TO.C,C18*%
X196583300Y-109397800D03*
X198132700Y-109397800D03*
%TD*%
%TO.C,C4*%
X89649300Y-79933800D03*
X91198700Y-79933800D03*
%TD*%
D37*
%TO.C,D2*%
X202183999Y-102038149D03*
X202183999Y-103549449D03*
%TD*%
D16*
%TO.C,R14*%
X146304000Y-88569800D03*
X146304000Y-90119200D03*
%TD*%
D22*
%TO.C,U3*%
X193522599Y-105905299D03*
X195833999Y-105905299D03*
X198145399Y-105905299D03*
D23*
X195833999Y-99326699D03*
%TD*%
D38*
%TO.C,R1*%
X118650400Y-107003850D03*
X117101000Y-107003850D03*
%TD*%
D10*
%TO.C,C15*%
X110998000Y-84010500D03*
X110998000Y-82461100D03*
%TD*%
%TO.C,R10*%
X136023000Y-84059500D03*
X136023000Y-82510100D03*
%TD*%
D16*
%TO.C,R16*%
X147828000Y-88633300D03*
X147828000Y-90182700D03*
%TD*%
D10*
%TO.C,R8*%
X185674000Y-79692500D03*
X185674000Y-78143100D03*
%TD*%
D15*
%TO.C,J4*%
X163830000Y-119049800D03*
X163830000Y-116509800D03*
%TD*%
D16*
%TO.C,R3*%
X128016000Y-84315300D03*
X128016000Y-85864700D03*
%TD*%
D11*
%TO.C,J3*%
X180055999Y-119557799D03*
X180705999Y-119557799D03*
X181355999Y-119557799D03*
X182005999Y-119557799D03*
X182655999Y-119557799D03*
D12*
X178155999Y-119782799D03*
X184555999Y-119782799D03*
D13*
X182555999Y-122232799D03*
X180155999Y-122232799D03*
D14*
X178055999Y-122232799D03*
X184655999Y-122232799D03*
%TD*%
D38*
%TO.C,R4*%
X202196700Y-106095800D03*
X200647300Y-106095800D03*
%TD*%
D16*
%TO.C,C12*%
X136023000Y-78446100D03*
X136023000Y-79995500D03*
%TD*%
D39*
%TO.C,J6*%
X142240000Y-118364000D03*
X144780000Y-118364000D03*
%TD*%
D16*
%TO.C,R6*%
X177800000Y-98221800D03*
X177800000Y-99771200D03*
%TD*%
M02*
