M48
; DRILL file {KiCad (7.0.0-0)} date Saturday, April 08, 2023 at 01:25:55 PM
; FORMAT={-:-/ absolute / inch / decimal}
; #@! TF.CreationDate,2023-04-08T13:25:55-06:00
; #@! TF.GenerationSoftware,Kicad,Pcbnew,(7.0.0-0)
; #@! TF.FileFunction,Plated,1,2,PTH
FMAT,2
INCH
; #@! TA.AperFunction,Plated,PTH,ViaDrill
T1C0.0157
; #@! TA.AperFunction,Plated,PTH,ComponentDrill
T2C0.0197
; #@! TA.AperFunction,Plated,PTH,ComponentDrill
T3C0.0394
; #@! TA.AperFunction,Plated,PTH,ComponentDrill
T4C0.0400
; #@! TA.AperFunction,Plated,PTH,ComponentDrill
T5C0.0425
%
G90
G05
T1
X3.473Y-3.487
X3.55Y-3.22
X4.24Y-3.42
X4.39Y-3.43
X4.43Y-4.29
X4.48Y-4.61
X4.57Y-3.37
X4.58Y-3.96
X4.6Y-3.4
X4.63Y-3.44
X4.63Y-3.49
X4.63Y-4.76
X4.64Y-3.15
X4.67Y-3.51
X4.74Y-3.99
X4.76Y-3.29
X4.76Y-3.51
X4.77Y-4.53
X4.782Y-3.598
X4.8Y-3.53
X4.83Y-3.49
X4.86Y-2.88
X4.88Y-3.5
X4.88Y-3.76
X4.92Y-3.53
X4.94Y-3.07
X4.9534Y-3.3419
X4.9858Y-3.7242
X5.0Y-3.05
X5.01Y-3.55
X5.05Y-3.21
X5.09Y-3.08
X5.12Y-3.3
X5.19Y-2.96
X5.21Y-2.86
X5.24Y-3.11
X5.2462Y-3.2638
X5.4Y-3.38
X5.63Y-2.54
X5.69Y-3.4
X5.87Y-4.38
X5.89Y-3.47
X6.2Y-3.32
X6.33Y-3.34
X6.56Y-3.54
X6.57Y-3.65
X6.64Y-3.78
X6.7761Y-3.5439
X6.78Y-3.4655
X6.78Y-3.69
X6.82Y-3.7
X6.8541Y-3.5255
X6.89Y-3.71
X6.94Y-3.72
X6.99Y-3.72
X7.0Y-3.22
X7.0Y-3.82
X7.02Y-2.97
X7.08Y-3.7
X7.09Y-2.81
X7.09Y-3.74
X7.11Y-3.82
X7.13Y-3.22
X7.13Y-3.77
X7.14Y-3.16
X7.19Y-3.7785
X7.2Y-3.72
X7.23Y-3.16
X7.24Y-3.75
X7.27Y-2.53
X7.29Y-2.85
X7.29Y-3.7
X7.3Y-2.91
X7.3098Y-3.7698
X7.34Y-3.62
X7.34Y-3.66
X7.34Y-3.7096
X7.41Y-3.3806
X7.41Y-3.42
X7.45Y-3.59
X7.52Y-3.5
X7.54Y-3.557
X7.5648Y-3.2335
X7.58Y-3.39
X7.65Y-4.25
X7.66Y-4.45
X7.69Y-3.07
X7.71Y-2.5
X7.74Y-4.66
X7.82Y-3.03
X7.83Y-3.93
X7.9Y-4.75
X7.94Y-3.95
T3
X3.4999Y-4.0223
X3.4999Y-4.3223
X3.5999Y-4.0223
X3.5999Y-4.3223
X3.6999Y-4.0223
X3.6999Y-4.3223
X3.7999Y-4.0223
X3.7999Y-4.3223
X3.8999Y-4.0223
X3.8999Y-4.3223
X3.9999Y-4.0223
X3.9999Y-4.3223
X6.9Y-4.017
X6.9Y-4.317
X7.0Y-4.017
X7.0Y-4.317
X7.1Y-4.017
X7.1Y-4.317
X7.2Y-4.017
X7.2Y-4.317
X7.3Y-4.017
X7.3Y-4.317
X7.4Y-4.017
X7.4Y-4.317
T4
X4.19Y-3.97
X4.19Y-4.07
X4.19Y-4.17
X4.19Y-4.27
X4.19Y-4.37
X4.19Y-4.47
X5.6Y-4.66
X5.7Y-4.66
X6.45Y-4.187
X6.45Y-4.287
X6.45Y-4.387
X6.45Y-4.487
X6.45Y-4.587
X6.45Y-4.687
T5
X3.61Y-2.58
X3.61Y-2.68
X3.71Y-2.58
X3.71Y-2.68
X3.81Y-2.58
X3.81Y-2.68
X3.91Y-2.58
X3.91Y-2.68
X4.01Y-2.58
X4.01Y-2.68
X4.11Y-2.58
X4.11Y-2.68
X4.21Y-2.58
X4.21Y-2.68
X4.31Y-2.58
X4.31Y-2.68
X4.41Y-2.58
X4.41Y-2.68
X4.51Y-2.58
X4.51Y-2.68
X4.61Y-2.58
X4.61Y-2.68
X4.71Y-2.58
X4.71Y-2.68
X4.81Y-2.58
X4.81Y-2.68
X4.91Y-2.58
X4.91Y-2.68
X5.01Y-2.58
X5.01Y-2.68
X5.11Y-2.58
X5.11Y-2.68
X5.21Y-2.58
X5.21Y-2.68
X5.31Y-2.58
X5.31Y-2.68
X5.41Y-2.58
X5.41Y-2.68
X5.51Y-2.58
X5.51Y-2.68
X5.92Y-2.58
X5.92Y-2.68
X6.02Y-2.58
X6.02Y-2.68
X6.12Y-2.58
X6.12Y-2.68
X6.22Y-2.58
X6.22Y-2.68
X6.32Y-2.58
X6.32Y-2.68
X6.42Y-2.58
X6.42Y-2.68
X6.52Y-2.58
X6.52Y-2.68
X6.62Y-2.58
X6.62Y-2.68
X6.72Y-2.58
X6.72Y-2.68
X6.82Y-2.58
X6.82Y-2.68
X6.92Y-2.58
X6.92Y-2.68
X7.02Y-2.58
X7.02Y-2.68
X7.12Y-2.58
X7.12Y-2.68
X7.22Y-2.58
X7.22Y-2.68
X7.32Y-2.58
X7.32Y-2.68
X7.42Y-2.58
X7.42Y-2.68
X7.52Y-2.58
X7.52Y-2.68
X7.62Y-2.58
X7.62Y-2.68
X7.72Y-2.58
X7.72Y-2.68
X7.82Y-2.58
X7.82Y-2.68
T2
G00X3.6301Y-4.796
M15
G01X3.6301Y-4.8236
M16
G05
G00X3.8899Y-4.796
M15
G01X3.8899Y-4.8236
M16
G05
G00X7.0101Y-4.7985
M15
G01X7.0101Y-4.8261
M16
G05
G00X7.2699Y-4.7985
M15
G01X7.2699Y-4.8261
M16
G05
T0
M30
